<svg width="60" height="60" viewBox="0 0 60 60" fill="none" xmlns="http://www.w3.org/2000/svg">
<path d="M42.6678 5.67892C43.75 5.2307 44.9098 5 46.081 5C47.2523 5 48.412 5.2307 49.4943 5.67892C50.5763 6.12715 51.5595 6.78413 52.3878 7.61233C53.216 8.44053 53.873 9.42375 54.3213 10.5059C54.7693 11.588 55 12.7478 55 13.919C55 15.0903 54.7693 16.2501 54.3213 17.3322C53.873 18.4143 53.216 19.3975 52.3878 20.2257L51.0923 21.5211L38.479 8.9077L39.7743 7.61233C40.6025 6.78413 41.5858 6.12715 42.6678 5.67892Z" fill="black"/>
<path d="M34.9435 12.4433L9.1365 38.2503C8.82885 38.5578 8.60683 38.9405 8.49235 39.3603L5.08815 51.8423C4.8521 52.7078 5.09793 53.6335 5.7323 54.2678C6.36668 54.9023 7.29233 55.148 8.15785 54.912L20.6399 51.5078C21.0597 51.3933 21.4423 51.1713 21.7499 50.8635L47.5568 25.0568L34.9435 12.4433Z" fill="black"/>
</svg>
