<svg width="407" height="520" viewBox="0 0 407 520" fill="none" xmlns="http://www.w3.org/2000/svg">
<g clip-path="url(#clip0_103_3)">
<path d="M365.5 519H0.499969V144.5C0.499969 64.8223 65.3222 0 145 0H221C300.678 0 365.5 64.8223 365.5 144.5V519Z" fill="#F2F2F2"/>
<path d="M289.5 519H0.499971V144.5C0.420197 113.969 10.088 84.2103 28.0957 59.5557C28.7595 58.6509 29.4216 57.7578 30.1045 56.8745C38.8147 45.4506 49.1801 35.3897 60.8586 27.0239C61.5183 26.5439 62.1806 26.0723 62.8528 25.6006C72.625 18.838 83.1959 13.3097 94.3249 9.1416C94.9858 8.89111 95.6587 8.64013 96.3315 8.3994C106.397 4.80747 116.83 2.34703 127.44 1.06348C128.098 0.973628 128.773 0.903319 129.448 0.833009C139.787 -0.272461 150.215 -0.272461 160.554 0.833009C161.227 0.903319 161.902 0.973619 162.568 1.06444C173.175 2.34807 183.606 4.80822 193.668 8.39945C194.341 8.64018 195.014 8.89114 195.677 9.14212C206.669 13.2577 217.115 18.7035 226.783 25.3579C227.455 25.8194 228.127 26.2911 228.79 26.7627C235.336 31.4355 241.485 36.6412 247.173 42.3267C251.735 46.8871 255.986 51.7483 259.898 56.8775C260.578 57.7579 261.24 58.6509 261.903 59.5543C279.911 84.2091 289.58 113.969 289.5 144.5V519Z" fill="#1F5D8A"/>
<path d="M266 351.5C274.836 351.5 282 344.337 282 335.5C282 326.663 274.836 319.5 266 319.5C257.163 319.5 250 326.663 250 335.5C250 344.337 257.163 351.5 266 351.5Z" fill="#B3BCD5"/>
<path d="M335.599 507.783H323.339L317.506 460.495L335.601 460.496L335.599 507.783Z" fill="#FFB8B8"/>
<path d="M314.582 504.28H338.225V519.167H299.695C299.695 517.212 300.08 515.276 300.828 513.47C301.576 511.664 302.673 510.022 304.055 508.64C305.437 507.258 307.079 506.161 308.885 505.413C310.691 504.665 312.627 504.28 314.582 504.28Z" fill="#2F2E41"/>
<path d="M396.599 507.783H384.339L378.506 460.495L396.601 460.496L396.599 507.783Z" fill="#FFB8B8"/>
<path d="M375.582 504.28H399.225V519.167H360.695C360.695 517.212 361.08 515.276 361.828 513.47C362.576 511.664 363.673 510.022 365.055 508.64C366.437 507.258 368.079 506.161 369.885 505.413C371.691 504.665 373.627 504.28 375.582 504.28Z" fill="#2F2E41"/>
<path d="M274.098 338.67C273.216 337.37 272.629 335.893 272.38 334.343C272.131 332.792 272.224 331.206 272.654 329.695C273.084 328.185 273.84 326.787 274.869 325.6C275.898 324.413 277.174 323.467 278.608 322.827L320.284 207.96L340.791 219.151L293.206 328.922C294.122 331.403 294.096 334.133 293.133 336.595C292.17 339.058 290.337 341.082 287.982 342.283C285.626 343.485 282.912 343.781 280.353 343.115C277.794 342.449 275.568 340.867 274.098 338.67Z" fill="#FFB8B8"/>
<path d="M390.336 360.254C388.974 359.472 387.799 358.402 386.895 357.118C385.991 355.834 385.38 354.367 385.104 352.821C384.828 351.275 384.895 349.687 385.299 348.169C385.703 346.652 386.435 345.241 387.443 344.037L374.533 222.528L397.87 223.594L403.236 343.114C405.147 344.942 406.32 347.408 406.535 350.043C406.749 352.678 405.989 355.301 404.399 357.414C402.809 359.526 400.499 360.982 397.907 361.506C395.316 362.029 392.622 361.584 390.336 360.254Z" fill="#FFB8B8"/>
<path d="M353.106 186.684C366.67 186.684 377.667 175.687 377.667 162.123C377.667 148.558 366.67 137.562 353.106 137.562C339.541 137.562 328.545 148.558 328.545 162.123C328.545 175.687 339.541 186.684 353.106 186.684Z" fill="#FFB8B8"/>
<path d="M390.18 332.619H316.133L316.222 332.042C316.355 331.181 329.419 245.603 319.784 217.606C318.817 214.855 318.902 211.843 320.022 209.151C321.143 206.459 323.22 204.276 325.853 203.023C339.625 196.538 366.061 188.552 388.373 207.932C391.657 210.831 394.22 214.454 395.862 218.515C397.504 222.575 398.179 226.962 397.833 231.328L390.18 332.619Z" fill="#678BF0"/>
<path d="M330.354 258.25L297.018 251.487L312.644 214.457C313.579 210.871 315.899 207.802 319.094 205.923C322.289 204.044 326.098 203.51 329.687 204.436C333.276 205.363 336.351 207.675 338.237 210.865C340.124 214.056 340.667 217.864 339.75 221.455L330.354 258.25Z" fill="#678BF0"/>
<path d="M373.05 270.808L371.046 224.867C369.526 216.23 374.47 208.066 382.074 206.732C389.679 205.402 397.105 211.392 398.632 220.092L406.165 263.02L373.05 270.808Z" fill="#678BF0"/>
<path d="M387.716 327.119C399.631 372.495 400.93 430.188 397.716 493.119L381.716 491.119L352.716 371.119L336.716 493.119L318.716 492.119C313.339 426.089 308.103 369.403 316.716 332.119L387.716 327.119Z" fill="#2F2E41"/>
<path d="M369.289 181.104C364.707 185.985 356.198 183.365 355.601 176.697C355.554 176.179 355.557 175.658 355.611 175.141C355.919 172.188 357.625 169.506 357.217 166.388C357.124 165.611 356.835 164.872 356.377 164.239C352.725 159.349 344.154 166.426 340.708 161.999C338.595 159.285 341.079 155.012 339.458 151.979C337.318 147.975 330.979 149.95 327.004 147.758C322.581 145.318 322.846 138.532 325.757 134.405C329.308 129.371 335.533 126.685 341.68 126.298C347.828 125.911 353.933 127.573 359.673 129.81C366.194 132.351 372.66 135.863 376.673 141.597C381.554 148.571 382.023 157.945 379.583 166.099C378.098 171.059 373.031 177.118 369.289 181.104Z" fill="#2F2E41"/>
<path d="M210 410.5H80C78.2879 410.509 76.6421 409.839 75.4235 408.636C74.205 407.434 73.5132 405.797 73.5 404.085V113.915C73.5132 112.203 74.205 110.566 75.4235 109.364C76.6421 108.161 78.2879 107.491 80 107.5H210C211.712 107.491 213.358 108.161 214.576 109.364C215.795 110.566 216.487 112.203 216.5 113.915V404.085C216.487 405.797 215.795 407.434 214.576 408.636C213.358 409.839 211.712 410.509 210 410.5Z" fill="white"/>
<path d="M216.5 201.39H73.4999V203.39H216.5V201.39Z" fill="#CCCCCC"/>
<path d="M217 315.5H73.9999V317.5H217V315.5Z" fill="#CCCCCC"/>
<path d="M120.5 107.5H118.5V411.5H120.5V107.5Z" fill="#CCCCCC"/>
<path d="M170.5 107.5H168.5V411.5H170.5V107.5Z" fill="#CCCCCC"/>
</g>
<defs>
<clipPath id="clip0_103_3">
<rect width="407" height="520" fill="white"/>
</clipPath>
</defs>
</svg>
